# xmcd
#
# Track frame offsets: 
#        150
#        9451
#        20202
#        34148
#        45970
#        61752
#        73251
#        101266
#        112233
#        125616
#        133944
#        144896
#        161312
#        175713
#        191437
#        208413
#        228986
#        245102
#        269190
#
# Disc length: 3935 seconds
#
# Revision: 0
# Processed by: cddbd v1.5.1PL2 Copyright (c) Steve Scherf et al.
# Submitted via: ExactAudioCopy v0.95a4
#
DISCID=190f5d13
DTITLE=Uncle Tupelo - Beliot College - Beliot WI - 1992
DYEAR=1992
DGENRE=Alternative
TTITLE0=Satan, Your Kingdom Must Come Down
TTITLE1=True to Life
TTITLE2=No Depression
TTITLE3=Watch Me Fall
TTITLE4=Shaky Ground
TTITLE5=Atomic Power
TTITLE6=Whiskey Bottle
TTITLE7=Wait Up
TTITLE8=Wipe the Clock
TTITLE9=I Wish My Baby Was Born
TTITLE10=Do Re Mi
TTITLE11=Life Worth Livin'
TTITLE12=I Wanna Be Your Dog
TTITLE13=Still Be Around
TTITLE14=Warfare
TTITLE15=Moonshiner
TTITLE16=Grindstone
TTITLE17=Sin City
TTITLE18=Motion Pictures
EXTD=
EXTT0=
EXTT1=
EXTT2=
EXTT3=
EXTT4=
EXTT5=
EXTT6=
EXTT7=
EXTT8=
EXTT9=
EXTT10=
EXTT11=
EXTT12=
EXTT13=
EXTT14=
EXTT15=
EXTT16=
EXTT17=
EXTT18=
PLAYORDER=
